<?xml version="1.0" encoding="utf-8"?>
<!-- Generator: Adobe Illustrator 18.1.1, SVG Export Plug-In . SVG Version: 6.00 Build 0)  -->
<svg version="1.1" id="Layer_1" xmlns="http://www.w3.org/2000/svg" xmlns:xlink="http://www.w3.org/1999/xlink" x="0px" y="0px"
	 viewBox="0 0 24 22" enable-background="new 0 0 24 22" xml:space="preserve">
<linearGradient id="SVGID_1_" gradientUnits="userSpaceOnUse" x1="12" y1="-5.086664e-006" x2="12" y2="22">
	<stop  offset="0" style="stop-color:#D6D6D6"/>
	<stop  offset="1" style="stop-color:#8A8A8A"/>
</linearGradient>
<path fill="url(#SVGID_1_)" d="M21,22H3c-1.7,0-3-1.3-3-3V3c0-1.7,1.3-3,3-3h18c1.7,0,3,1.3,3,3v16C24,20.7,22.7,22,21,22z"/>
<g>
	<rect x="4.6" y="6.3" transform="matrix(0.7071 0.7071 -0.7071 0.7071 8.992 -2.7088)" fill="#ECDA05" width="6.4" height="6.4"/>
	
		<rect x="9.1" y="10.8" transform="matrix(0.7071 0.7071 -0.7071 0.7071 13.4922 -4.5728)" fill="#F8DC00" width="6.4" height="6.4"/>
	
		<rect x="13.6" y="6.3" transform="matrix(0.7071 0.7071 -0.7071 0.7071 11.6281 -9.0728)" fill="#FFEE00" width="6.4" height="6.4"/>
</g>
</svg>
